<svg
                version="1.0"
                xmlns="http://www.w3.org/2000/svg"
                viewBox="0 0 512.000000 512.000000"
                preserveAspectRatio="xMidYMid meet">
                <g
                  transform="translate(0.000000,512.000000) scale(0.100000,-0.100000)"
                  fill="#8000ff"
                  stroke="none">
                  <path
                    d="M895 5106 c-40 -18 -73 -56 -85 -97 -15 -50 -13 -4841 1 -4894 21
-78 96 -125 176 -111 34 7 117 86 805 774 l768 767 767 -767 c673 -672 773
-767 805 -773 87 -16 160 32 178 118 8 38 10 720 8 2474 l-3 2422 -21 27 c-11
15 -33 37 -48 48 -27 21 -28 21 -1674 23 -1357 2 -1652 0 -1677 -11z m3125
-2436 c0 -1182 -3 -2150 -8 -2150 -4 0 -315 308 -692 685 -567 568 -691 687
-722 696 -84 22 -58 44 -798 -696 -377 -377 -688 -685 -692 -685 -5 0 -8 968
-8 2150 l0 2150 1460 0 1460 0 0 -2150z"
                  />
                </g>
              </svg>